<?xml version="1.0" encoding="UTF-8"?>
<svg id="Capa_2" data-name="Capa 2" xmlns="http://www.w3.org/2000/svg" viewBox="0 0 375.92 514.09">
  <defs>
    <style>
      .cls-1 {
        fill: #1a65a4;
        stroke-width: 0px;
      }
    </style>
  </defs>
  <g id="Capa_1-2" data-name="Capa 1">
    <g>
      <path class="cls-1" d="M230.82,411.96l48.13-38.96c6.01-4.87,9.39-11.47,9.39-18.36v-195.18c0-6.89-3.38-13.49-9.39-18.36l-48.13-38.96c-6.01-4.87-14.17-7.6-22.68-7.6h-20.18s-20.18,0-20.18,0c-8.51,0-16.66,2.74-22.68,7.6l-48.13,38.96c-6.01,4.87-9.39,11.47-9.39,18.36v195.18c0,6.89,3.38,13.49,9.39,18.36l48.13,38.96c6.01,4.87,14.17,7.6,22.68,7.6h20.18s20.18,0,20.18,0c8.51,0,16.66-2.74,22.68-7.6Z"/>
      <path class="cls-1" d="M243.97,40.35c12.34,0,24.18,5.29,32.9,14.71l48.03,51.84c8.73,9.42,13.63,22.19,13.63,35.51v229.26c0,13.32-4.9,26.09-13.63,35.51l-48.03,51.84c-8.73,9.42-20.56,14.71-32.9,14.71h-112.03c-12.34,0-24.18-5.29-32.9-14.71l-48.03-51.84c-8.73-9.42-13.63-22.19-13.63-35.51v-229.26c0-13.32,4.9-26.09,13.63-35.51l48.03-51.84c8.73-9.42,20.56-14.71,32.9-14.71h112.03M243.97,0h-112.03c-22.42,0-43.49,9.42-59.34,26.53l-48.03,51.84C8.73,95.48,0,118.22,0,142.42v229.26c0,24.19,8.73,46.94,24.58,64.05l48.03,51.84c15.85,17.11,36.92,26.53,59.34,26.53h112.03c22.42,0,43.49-9.42,59.34-26.53l48.03-51.84c15.85-17.11,24.58-39.85,24.58-64.05v-229.26c0-24.19-8.73-46.94-24.58-64.05l-48.03-51.84C287.46,9.42,266.39,0,243.97,0h0Z"/>
    </g>
  </g>
</svg>